
<svg version="1.0" xmlns="http://www.w3.org/2000/svg"
 width="274.000000pt" height="308.000000pt" viewBox="0 0 274.000000 308.000000"
 preserveAspectRatio="xMidYMid meet">

<g transform="translate(0.000000,308.000000) scale(0.100000,-0.100000)"
fill="#000000" stroke="none">
<path d="M1321 2844 c-42 -19 -87 -58 -198 -172 -78 -81 -143 -151 -143 -156
0 -4 99 -107 219 -228 l219 -219 143 148 c79 81 180 183 224 225 l79 77 -149
152 c-163 165 -214 199 -295 199 -27 0 -67 -10 -99 -26z"/>
<path d="M708 2212 c-86 -86 -163 -171 -172 -189 -22 -44 -20 -125 3 -171 11
-21 90 -105 176 -187 l156 -148 127 126 127 127 -83 83 c-45 45 -82 86 -82 90
0 5 38 44 84 88 l85 80 -77 77 c-43 42 -102 100 -133 129 l-55 52 -156 -157z"/>
<path d="M1847 2242 l-127 -127 80 -83 c44 -45 80 -86 80 -91 0 -5 -36 -44
-80 -87 -44 -42 -80 -82 -80 -87 0 -5 57 -65 127 -132 l127 -123 158 156 c87
86 165 171 173 189 24 49 19 128 -10 182 -15 28 -85 103 -174 188 l-148 141
-126 -126z"/>
<path d="M1196 1583 l-220 -224 145 -145 c171 -172 204 -194 287 -194 95 0
129 21 299 191 132 131 152 154 141 167 -14 18 -117 120 -309 308 l-124 120
-219 -223z"/>
<path d="M1727 662 c-15 -16 -17 -47 -17 -229 0 -194 1 -211 19 -227 15 -14
24 -15 40 -6 20 10 21 18 21 233 0 223 -4 247 -35 247 -7 0 -19 -8 -28 -18z"/>
<path d="M564 645 c-31 -48 15 -101 62 -70 28 18 31 41 8 73 -20 29 -50 28
-70 -3z"/>
<path d="M1887 652 c-46 -51 9 -124 57 -76 22 21 20 50 -4 74 -25 25 -32 25
-53 2z"/>
<path d="M2146 655 c-38 -20 -54 -41 -67 -92 -8 -30 -17 -43 -32 -45 -48 -7
-46 -76 2 -71 20 3 21 -1 21 -96 0 -124 10 -154 48 -149 l27 3 3 123 3 122 43
0 c56 0 76 8 76 29 0 29 -22 41 -72 41 -44 0 -48 2 -48 24 0 35 19 45 94 48
54 2 71 7 80 21 29 47 -107 79 -178 42z"/>
<path d="M295 525 c-42 -22 -65 -52 -65 -85 0 -41 27 -67 105 -98 54 -21 70
-32 70 -47 0 -27 -53 -32 -107 -10 -31 12 -43 13 -54 4 -57 -47 72 -118 161
-89 46 15 75 53 75 100 0 52 -24 77 -100 103 -42 14 -66 28 -68 39 -4 23 35
33 72 19 15 -6 41 -11 57 -11 25 0 30 4 27 21 -8 53 -114 86 -173 54z"/>
<path d="M1050 529 c-14 -6 -35 -20 -47 -31 -13 -12 -23 -17 -23 -12 0 18 -58
44 -97 44 -21 0 -49 -7 -61 -16 -22 -15 -25 -15 -43 2 -15 14 -24 16 -37 8
-14 -10 -17 -33 -20 -156 -2 -136 -1 -146 18 -163 16 -15 25 -17 38 -9 14 9
18 32 22 118 5 98 7 110 29 127 29 23 74 25 92 2 9 -10 16 -54 19 -127 l5
-111 30 0 30 0 5 106 c6 119 20 149 70 149 50 0 64 -30 70 -148 l5 -107 30 0
30 0 3 113 c3 138 -10 175 -72 203 -46 21 -60 22 -96 8z"/>
<path d="M1446 530 c-15 -5 -36 -16 -45 -24 -15 -14 -18 -13 -29 4 -14 22 -42
26 -60 8 -9 -9 -12 -73 -12 -224 0 -208 0 -213 22 -228 19 -13 25 -14 43 -2
16 11 21 26 23 84 l3 70 39 -15 c72 -29 157 7 190 80 39 85 18 179 -49 222
-43 28 -86 36 -125 25z m91 -94 c23 -20 28 -32 28 -71 0 -39 -5 -51 -28 -71
-48 -41 -116 -26 -146 33 -19 37 -13 73 18 104 38 37 88 39 128 5z"/>
<path d="M2322 518 c-19 -19 -16 -27 47 -160 55 -117 57 -126 44 -151 -7 -15
-27 -34 -43 -42 -49 -25 -34 -75 22 -75 15 0 36 9 47 21 28 30 162 326 168
371 5 30 2 39 -12 44 -35 14 -45 0 -117 -176 -9 -23 -13 -18 -58 78 -49 103
-68 120 -98 90z"/>
<path d="M572 508 c-8 -8 -12 -54 -12 -143 0 -144 8 -169 51 -163 24 3 24 3
27 138 1 74 0 145 -3 158 -6 24 -42 31 -63 10z"/>
<path d="M1876 504 c-3 -9 -6 -73 -6 -144 0 -109 3 -131 18 -150 16 -19 22
-21 40 -11 21 11 22 18 22 160 0 127 -2 150 -16 155 -28 11 -52 6 -58 -10z"/>
</g>
</svg>
