<svg width="19" height="19" viewBox="0 0 19 19" fill="currentColor" xmlns="http://www.w3.org/2000/svg">
    <path fill-rule="evenodd" clip-rule="evenodd" d="M2.16663 0.242676C1.3382 0.242676 0.666626 0.914246 0.666626 1.74268V16.7427C0.666626 17.5711 1.3382 18.2427 2.16663 18.2427H17.1666C17.995 18.2427 18.6666 17.5711 18.6666 16.7427V1.74268C18.6666 0.914246 17.995 0.242676 17.1666 0.242676H2.16663ZM6.18739 4.2454C6.19302 5.20165 5.47724 5.79087 4.62786 5.78665C3.8277 5.78243 3.1302 5.1454 3.13442 4.24681C3.13864 3.40165 3.80661 2.72243 4.67427 2.74212C5.55458 2.76181 6.19302 3.40728 6.18739 4.2454ZM9.94633 7.00444H7.42634H7.42493V15.5643H10.0883V15.3646C10.0883 14.9847 10.088 14.6047 10.0877 14.2246C10.0869 13.2108 10.086 12.1959 10.0912 11.1824C10.0926 10.9363 10.1038 10.6804 10.1671 10.4455C10.4047 9.56798 11.1937 9.00128 12.074 9.14058C12.6393 9.22908 13.0133 9.55678 13.1708 10.0898C13.2679 10.423 13.3115 10.7816 13.3157 11.129C13.3271 12.1766 13.3255 13.2242 13.3239 14.2719C13.3233 14.6417 13.3227 15.0117 13.3227 15.3815V15.5629H15.9946V15.3576C15.9946 14.9056 15.9944 14.4537 15.9941 14.0018C15.9936 12.8723 15.993 11.7428 15.996 10.6129C15.9974 10.1024 15.9426 9.59898 15.8174 9.10538C15.6304 8.37128 15.2437 7.76378 14.6151 7.32508C14.1693 7.01287 13.6799 6.81178 13.1329 6.78928C13.0706 6.78669 13.0078 6.7833 12.9447 6.77989C12.665 6.76477 12.3807 6.74941 12.1133 6.80334C11.3483 6.95662 10.6762 7.30678 10.1685 7.92408C10.1095 7.99488 10.0518 8.06678 9.96573 8.17408L9.94633 8.19838V7.00444ZM3.34827 15.5671H5.99905V7.01001H3.34827V15.5671Z" fill="currentColor"/>
</svg>
